<?xml version="1.0" encoding="utf-8"?>
<!DOCTYPE svg PUBLIC "-//W3C//DTD SVG 1.0//EN" "http://www.w3.org/TR/2001/REC-SVG-20010904/DTD/svg10.dtd">
<svg version="1.0" xmlns="http://www.w3.org/2000/svg" width="707px" height="353px" viewBox="0 0 707 353" preserveAspectRatio="xMidYMid meet">
 <g fill="#000000">
  <path d="M136.3 336.1 c-1 -2.5 -2.3 -4.1 -3.3 -4.1 -2.5 0 -4 -2.1 -4 -5.7 0 -2.8 0.5 -3.5 3.5 -4.7 2.2 -1 3.7 -2.4 4.1 -4 0.5 -2.3 1.1 -2.6 5.1 -2.6 3.9 0 4.5 0.3 5.4 2.8 0.5 1.5 2.3 3.5 3.9 4.4 2.6 1.5 3 2.3 3 5.8 0 3.7 -0.3 4.1 -3 4.7 -2.3 0.4 -3.2 1.3 -3.8 3.7 -0.7 2.8 -1.2 3.1 -5.1 3.4 -4.1 0.3 -4.3 0.2 -5.8 -3.7z"/>
  <path d="M515 330.6 c0 -3.3 1.6 -8.7 4.4 -14.9 4.9 -10.8 7.4 -16.6 8 -19 0.6 -2.6 1 -2.8 4.9 -2.5 3.8 0.3 4.2 0.6 4.5 3.1 0.4 3.1 -3.8 15.7 -9.5 28.5 l-3.7 8.2 -4.3 0 c-4.2 0 -4.3 -0.1 -4.3 -3.4z"/>
  <path d="M96.2 321.3 c-0.6 -1.5 -1.4 -4.3 -1.7 -6 -0.8 -3.9 -1.2 -4.2 -7.9 -5.7 -4.9 -1.1 -5.1 -1.3 -5.4 -4.8 -0.3 -3.9 -0.6 -3.7 7.4 -5.7 4.4 -1.2 5.3 -2.5 7.2 -10.1 0.7 -3.1 1.2 -3.5 4.6 -3.8 4.9 -0.4 6.3 0.9 7.1 6.8 0.8 5.6 1.6 6.5 6.5 7.3 1.9 0.3 4.2 0.8 5 1.1 1.2 0.5 1.5 -0.2 1.2 -3.9 -0.3 -3.5 -0.1 -4.5 1.1 -4.5 0.8 0 2 -1.3 2.5 -2.9 l1 -2.9 -15.3 -4.1 c-8.5 -2.2 -16 -4.1 -16.8 -4.1 -0.8 0 -12.2 -2.9 -25.3 -6.4 -13.2 -3.5 -25.8 -6.7 -28.2 -7.1 -7.1 -1.1 -15.4 -4.8 -17.6 -7.8 -2 -2.8 -2.1 -4.2 -2.8 -57 -1.6 -115 -1.6 -109.6 0.9 -111.7 3 -2.4 11.4 -3.6 37.3 -5.5 45.4 -3.3 81.6 -3.7 353.1 -3.8 270.4 -0.2 271.7 -0.2 273.9 1.8 1.2 1.1 2.7 3.1 3.2 4.5 0.5 1.4 1.3 18.7 1.8 38.5 0.5 19.8 1.4 54 2 76 0.5 22 0.6 42.3 0.2 45.2 -1.3 8 -2.9 9.6 -12.9 13 -12.1 4.2 -18.1 6 -22.8 6.8 -2.2 0.4 -11.2 3 -20 5.7 -8.8 2.8 -18.7 5.7 -22 6.6 -3.3 0.8 -13.4 3.8 -22.3 6.5 l-16.4 5 -16.1 -0.7 c-8.9 -0.3 -18.3 -0.9 -20.9 -1.2 -4.7 -0.6 -4.8 -0.6 -4.8 2 0 4 -5.1 3.6 -10 -0.7 l-3.6 -3.4 -16 -0.7 c-15.7 -0.6 -28.5 -1.3 -73.9 -3.7 -40.7 -2.2 -85.1 -1.7 -123 1.4 -36.4 3 -65.1 5.6 -94 8.6 -50.6 5.3 -60.7 5.2 -76.1 -0.3 -3.9 -1.3 -4.1 -1.3 -3.7 0.4 0.3 1 1.3 2 2.4 2.3 1.5 0.4 1.9 1.4 1.9 4.6 0 2.9 -0.4 4.1 -1.5 4.1 -0.8 0 -2.1 1.4 -3 3 -1.3 2.5 -2.2 3 -5 3 -2.9 0 -3.6 -0.4 -4.2 -2.7 l-0.7 -2.8 -0.6 3.5 c-0.5 3.3 -0.8 3.6 -6.4 5.1 -6.4 1.6 -6.8 2.1 -8.8 8.9 -1.2 4.3 -1.5 4.5 -5.4 4.8 -3.7 0.3 -4.2 0 -5.2 -2.5z m80.4 -37.2 c8.7 -1.1 19.3 -2.2 23.4 -2.6 4.1 -0.3 10.9 -1 15 -1.5 7.3 -0.9 12 -1.4 45.8 -4.5 18.5 -1.7 54.1 -4 87.1 -5.6 16.1 -0.8 30.5 -0.8 51.5 0 16 0.7 41 1.6 55.6 2.1 14.6 0.5 33.5 1.2 42 1.5 15.3 0.6 15.5 0.6 13.3 -1.3 -1.8 -1.6 -4.5 -2 -16 -2.6 -7.6 -0.4 -23.7 -1.4 -35.8 -2.2 -29.8 -2 -87.3 -4.3 -96.5 -3.8 -4.1 0.2 -17.4 0.9 -29.5 1.4 -29.7 1.4 -88.8 6.4 -124.5 10.5 -40.9 4.7 -50 4.9 -61.5 1.5 -18.6 -5.6 -36.4 -10.6 -42.5 -12 -8.1 -1.9 -20.3 -5.2 -34.5 -9.5 -4.9 -1.5 -11.7 -3.4 -15 -4.2 -3.3 -0.9 -8.9 -2.5 -12.5 -3.7 -6.3 -2 -6.5 -2.2 -7.1 -6.1 -0.8 -4.7 -3.3 -138.4 -2.6 -139.1 1.1 -1.2 24.3 -5.4 29.6 -5.4 5.2 0 5.9 0.2 6.5 2.3 0.7 2.3 1.2 9.2 4.6 69.3 1.2 20.3 2.3 37.4 2.5 38 0.2 0.6 1.9 1.4 3.7 1.8 5.8 1.1 29.2 8.6 31.5 10.2 l2.3 1.4 0 -18.3 0 -18.4 -12.3 -24.4 c-6.8 -13.4 -12.9 -25.7 -13.5 -27.4 -0.6 -1.6 -3.2 -6.8 -5.7 -11.4 -3.1 -5.9 -4.5 -9.6 -4.5 -12.3 l0 -3.9 10.8 -5.2 c7.6 -3.6 11.9 -5.1 15.1 -5.2 l4.3 0 6.4 10 c3.5 5.5 7.4 11.9 8.5 14.3 1.8 3.7 3.9 4.9 3.9 2.1 0 -0.5 1.1 -3.2 2.5 -6.1 1.4 -2.8 2.5 -5.9 2.6 -6.7 0 -0.9 1.2 -4.1 2.7 -7.1 2.5 -5 3 -5.5 6.3 -5.8 2 -0.2 5.6 0.4 8 1.3 2.4 0.9 8.8 3.1 14.1 5 l9.7 3.3 0.3 -4.1 0.3 -4.2 6 -0.7 c10.3 -1.3 52.8 -4.8 57.6 -4.8 3.3 0 4.9 0.5 5.3 1.6 0.3 0.9 0.6 9.8 0.6 19.9 l0 18.2 -3.7 0.7 c-2.1 0.3 -11.3 0.6 -20.5 0.6 l-16.8 0 0 4.8 c0 2.6 -0.3 10.4 -0.7 17.5 l-0.6 12.7 17.2 -0.6 c14.3 -0.6 17.4 -0.5 18.2 0.7 1.4 2.3 1.1 26.9 -0.3 27.4 -0.7 0.3 -8.7 1.1 -17.8 1.8 l-16.5 1.2 -0.5 33.2 c-0.3 18.2 -0.8 33.4 -1.2 33.8 -1 1 -26.2 1 -27.7 0 -1.2 -0.7 -1.3 -13.1 -0.9 -71.8 0.5 -69.2 0.5 -71 -1.3 -67.6 -1 1.9 -2.3 5 -2.9 6.9 -1.1 3.4 -4.9 11.5 -18.5 39.4 l-6.8 14 0.6 38.7 c0.6 35.1 0.5 38.9 -0.9 39.7 -1.4 0.8 -1.1 1 1.2 1.6 1.6 0.4 6.5 2.1 10.9 3.8 9.1 3.5 8.3 3.5 41 -0.7 17.3 -2.2 47.7 -5.5 51.2 -5.5 1 0 1.1 -0.5 0.4 -1.7 -1.4 -2.7 -1.9 -168.2 -0.5 -168.7 0.6 -0.2 8.9 -0.7 18.5 -1.1 34.6 -1.5 19.3 -2.4 -37.6 -2.5 -67 0 -127 1.4 -157 3.6 -11.6 0.9 -25.2 1.9 -30.3 2.3 -7.7 0.5 -9.6 1 -10.9 2.6 -1.3 1.7 -1.4 9.2 -0.8 58.5 0.9 71.1 1.6 91.2 3.6 93.6 0.8 0.9 3 2.4 4.9 3.2 4.6 1.9 20.2 6.2 26.5 7.2 2.8 0.4 11.5 2.6 19.5 4.9 8 2.2 19.5 5.3 25.5 6.7 15.2 3.6 33.4 8.7 43.5 12.3 4.7 1.6 9 3 9.6 3 0.5 0.1 8.2 -0.8 17 -1.8z m404.4 -9.2 c6.3 -1.7 16 -4.4 21.5 -6.1 5.5 -1.7 12.9 -3.9 16.5 -5 3.6 -1 11.7 -3.2 18 -4.9 17.8 -4.6 42.7 -12.8 44.2 -14.6 1.5 -1.8 1.4 -18.7 -0.3 -94.3 -1.2 -50.3 -1.7 -57.3 -4.9 -60.4 l-2.1 -2.1 1.1 3 c1.6 4.2 3.3 35.6 2.7 49.5 -0.3 6.3 0.1 25.7 0.9 43 1.8 39.3 2.1 53.8 1.2 57.2 -1.1 3.9 -6.1 6.5 -18 9.3 -5.9 1.3 -12.6 3.1 -15 3.9 -2.3 0.8 -9 2.8 -14.8 4.6 -5.8 1.7 -12.1 3.7 -14 4.4 -1.9 0.8 -5.6 1.6 -8.2 2 -2.5 0.4 -11.1 2.7 -19 5.2 -13.2 4.1 -15.1 4.4 -25.1 4.4 -5.9 0 -14.9 -0.4 -20 -0.9 -5.1 -0.5 -12.1 -1.2 -15.6 -1.5 l-6.5 -0.6 2.4 2.5 c1.9 2.1 3.3 2.5 7.9 2.6 3.1 0.1 11 0.7 17.6 1.4 13.9 1.4 14.3 1.4 29.5 -2.6z m-282.5 -23.1 c-0.4 -3.5 -1.5 -12.6 -2.5 -20.3 -1.6 -12.9 -1.8 -13.4 -1.9 -7 0 4 -0.6 7.6 -1.3 8.3 -0.7 0.7 -4.1 1.2 -8.4 1.2 -7.7 0 -10.7 0.7 -9.8 2.1 0.3 0.5 4.8 0.9 10 0.9 9.2 0 9.5 0.1 10.4 2.6 0.6 1.4 1 6.1 1 10.5 0 6.5 0.3 7.9 1.6 7.9 1.3 0 1.5 -0.9 0.9 -6.2z m-107.3 -29.2 c0.2 -18.4 0.6 -33.7 1 -34.1 0.3 -0.3 7.5 -1 16 -1.5 8.4 -0.5 16.1 -1.2 17.1 -1.6 1.5 -0.5 1.7 -1.6 1.5 -5.8 l-0.3 -5.1 -3.5 0.1 c-1.9 0.1 -9.7 0.5 -17.2 0.9 l-13.7 0.8 -0.7 -2.8 c-0.8 -3.2 0.3 -50.6 1.2 -51.4 0.3 -0.3 9.4 -0.6 20.2 -0.6 l19.7 0 0.3 -5.5 c0.2 -3 0 -7.9 -0.3 -10.9 l-0.7 -5.3 -9.1 0.7 c-5.1 0.4 -16.6 1.4 -25.7 2.3 l-16.5 1.7 -0.6 25 c-0.5 19.3 -1.3 122 -1 125.8 0.1 0.4 2.8 0.7 6 0.7 l6 0 0.3 -33.4z m-86.1 13.1 c-0.5 -4.3 -1.3 -8.3 -1.9 -8.9 -0.5 -0.5 -8.7 -3.1 -18.2 -5.8 -9.5 -2.7 -17.5 -5.1 -17.7 -5.4 -1.1 -1.1 -5.3 -64 -6 -89.5 l-0.6 -19.3 -4.1 0.7 c-2.2 0.4 -6.5 1 -9.4 1.4 -3 0.4 -5.7 1.3 -6 1.8 -0.4 0.6 -0.4 8.7 0 18 0.4 9.2 1.2 37.3 1.8 62.3 0.6 25 1.4 45.8 1.8 46.1 0.7 0.6 1.6 0.9 17.2 5 4.7 1.2 16.4 4.6 26 7.5 l17.5 5.2 0.3 -5.5 c0.2 -3.1 -0.1 -9.2 -0.7 -13.6z m27.3 18.4 c0.3 -0.5 0.2 -17.8 -0.4 -38.5 l-1 -37.6 7.5 -14.4 c4.1 -8 7.5 -15 7.5 -15.6 0 -0.6 2.6 -6.5 5.9 -13.3 3.2 -6.7 7 -14.7 8.4 -17.8 l2.5 -5.7 -4.7 -1.2 c-2.5 -0.6 -6.9 -1.9 -9.7 -2.9 l-5.1 -1.7 -3.2 8.5 c-1.8 4.7 -4.9 12.1 -6.9 16.4 l-3.6 7.7 -4.2 0 c-3.4 0 -4.7 -0.5 -6.3 -2.6 -1.2 -1.5 -2.1 -3 -2.1 -3.4 0 -0.5 -3.1 -6 -7 -12.4 -3.8 -6.3 -7 -11.9 -7 -12.5 0 -2.1 -2 -2 -7.8 0.7 l-6.1 2.7 2.3 4.2 c1.3 2.3 2.9 5.9 3.6 8 0.7 2.1 2 5.2 3 6.8 1 1.7 3.8 7.1 6.3 12 2.5 5 7.6 15.1 11.4 22.5 l6.8 13.5 0.3 38.8 0.3 38.7 4.4 0 c2.4 0 4.6 -0.4 4.9 -0.9z m397 -2 c1.5 -1.7 1.6 -6.7 0.5 -72.2 -0.7 -38.7 -1.6 -71.4 -2 -72.7 -0.8 -2 -1.5 -2.2 -8.6 -2.2 -4.3 0 -8.4 0.4 -9.2 0.9 -1.2 0.8 -1.2 6 -0.1 35.7 0.7 19.2 1.1 36 0.9 37.4 -0.3 2 -1.1 2.6 -3.7 2.8 -3.9 0.4 -6.2 -1.9 -8.8 -8.8 -0.9 -2.5 -2.5 -5.6 -3.5 -7 -1 -1.5 -4.7 -8.4 -8.3 -15.5 -3.6 -7.2 -8 -15.5 -9.7 -18.5 -1.8 -3 -5 -9.1 -7.1 -13.4 -6.8 -13.7 -6.7 -13.6 -17 -13.6 l-8.8 0 0 7.4 c0 4 0.5 20.1 1.1 35.7 0.6 15.6 1.6 44.4 2.2 63.9 l1.2 35.5 6.9 0.3 c3.8 0.2 7.3 -0.1 7.8 -0.6 0.6 -0.6 0.5 -12.2 -0.2 -30.3 -0.7 -16.2 -1.3 -33 -1.4 -37.4 l-0.1 -8 3.2 -0.3 c4.7 -0.5 6.6 1 9.7 7.5 3.4 7.2 3.4 7 10 19 2.9 5.4 5.7 10.9 6.1 12.3 0.4 1.4 1.5 3.6 2.5 5 0.9 1.4 3.1 5.2 4.7 8.5 1.7 3.3 3.9 7.6 5 9.5 1.1 1.9 2.3 4.7 2.7 6.3 0.3 1.5 2.2 5.2 4.1 8.2 3.7 5.7 4.3 6 14.1 6.3 2.9 0.2 4.6 -0.4 5.8 -1.7z m56.7 0.3 c1 -1.3 1.6 -8.7 2.2 -30.5 0.4 -15.9 1.3 -43.8 2 -62.1 l1.2 -33.3 8.5 0 c13.1 -0.1 12 0.8 12 -9.2 0 -4.9 -0.5 -9.5 -1 -10.3 -0.8 -1.3 -5.7 -1.5 -31.9 -1.8 l-31 -0.3 -0.7 2.6 c-0.7 3 0.3 15.6 1.4 16.7 0.4 0.4 6.1 1.1 12.7 1.5 l12 0.8 -0.1 11 c-0.2 15.8 -3.4 107.8 -3.8 109 -0.6 2 1.4 5.6 3.6 6.5 3.9 1.5 11.4 1.2 12.9 -0.6z m-165.8 -11.6 c1.3 -0.7 1.7 -2.2 1.7 -6.8 0 -3.2 -0.4 -7 -1 -8.4 l-1 -2.6 -17.3 0 -17.4 0 -0.7 -3.7 c-0.8 -5.3 -0.7 -28.6 0.2 -29.9 0.4 -0.7 6.5 -1.4 15.2 -1.8 7.9 -0.4 14.8 -1 15.2 -1.2 1.3 -0.8 0.9 -14.9 -0.4 -16.6 -1.2 -1.4 -2.9 -1.5 -16 -0.5 -8.1 0.6 -15 0.8 -15.3 0.5 -0.3 -0.3 -0.8 -10.7 -1.2 -23.1 -0.5 -19 -0.4 -22.7 0.8 -23.2 0.8 -0.2 8.4 -0.9 17.1 -1.4 8.6 -0.5 16.1 -1.2 16.7 -1.5 1.5 -1 1.4 -13.8 -0.1 -15.9 -1.2 -1.6 -2.9 -1.6 -24.3 -0.3 -12.7 0.8 -23.8 1.8 -24.8 2.1 -0.9 0.4 -1.7 1.7 -1.7 2.9 1.5 107.4 2 130.9 3.1 132.2 0.9 1.1 5.3 1.3 25.3 0.8 13.2 -0.4 24.9 -1.1 25.9 -1.6z m-89.2 -37.8 c2.3 -16.9 8.2 -52.8 9.8 -60 0.5 -2.5 1.7 -9.9 2.6 -16.5 0.9 -6.6 2.2 -14.8 2.9 -18.3 l1.4 -6.3 -6.2 0.3 -6.1 0.3 -0.8 8 c-0.6 6.5 -7.1 41.9 -9.4 51.3 -0.5 2 -1.1 2.3 -4.2 2 l-3.6 -0.3 -1.3 -7.5 c-0.7 -4.1 -2.6 -14.6 -4.2 -23.3 -1.7 -8.6 -3 -16.7 -3.1 -18 0 -1.2 -0.3 -1.7 -0.5 -1 -0.5 1.2 3.7 30.6 9.1 63.3 1.8 11.3 3.6 23.9 4 28 0.4 4.1 1.5 13.4 2.6 20.5 1 7.2 1.9 13.5 2 14 0.1 0.6 0.8 -3.9 1.5 -10 0.8 -6 2.4 -18 3.5 -26.5z m316.7 29.9 c13.8 -6.9 20.2 -23.6 15.2 -40 -2.5 -8.4 -8.5 -20 -14.1 -27.4 -6.1 -8.1 -8.9 -15.4 -8.9 -23.3 0 -9.5 1.4 -11.2 8.9 -11.2 6.6 0 8.1 1.1 10.1 7.5 2.2 6.9 5.3 9.1 8.4 5.9 2.1 -2 2.2 -12.8 0.2 -17.5 -2.1 -5.1 -8.9 -12.3 -13.6 -14.4 -3.6 -1.6 -4.7 -1.7 -8.6 -0.7 -12.1 3.3 -21.3 15.7 -20.1 27.2 0.7 5.8 6.6 19.2 12.8 29.1 7.3 11.7 7.9 13.7 7.9 26 0 13.3 -0.4 13.9 -9.8 13.9 -3.7 0 -7.3 -0.4 -7.9 -0.8 -0.7 -0.4 -1.7 -3.2 -2.3 -6.1 -2 -10.6 -5.7 -15.4 -9.6 -12.2 -5.3 4.3 -7.7 13.7 -5.5 21.8 1.6 5.9 8.9 18.2 11.5 19.4 1.1 0.5 3.9 2.1 6.1 3.4 5.7 3.5 11.6 3.3 19.3 -0.6z m-355.8 -36.3 c-1.3 -10.2 -2.6 -19 -3 -19.5 -0.4 -0.7 -3.6 -0.8 -8.9 -0.4 l-8.4 0.6 0.8 16.1 c0.4 8.8 0.9 16.5 1.2 16.9 0.3 0.5 3.8 0.5 7.8 0.2 9.1 -0.9 11.5 -0.2 11.5 3.2 0 1.5 0.3 2.4 0.6 2 0.4 -0.3 -0.4 -8.9 -1.6 -19.1z m-10.8 -43.6 c5.7 0 5.7 0 5.3 -2.7 -0.2 -1.6 -1.4 -9.4 -2.6 -17.5 l-2.2 -14.8 -5.6 0.6 c-3.1 0.4 -5.8 0.9 -6.1 1.1 -0.6 0.5 0 30.3 0.6 32.6 0.4 1.4 1.2 1.7 2.7 1.3 1.2 -0.3 4.8 -0.6 7.9 -0.6z m24.3 -50 c-0.3 -0.5 -2.3 -0.9 -4.3 -0.9 l-3.7 0.2 4 0.7 c2.2 0.4 4.1 0.8 4.3 0.9 0.2 0 0 -0.3 -0.3 -0.9z m95.2 -15.7 c-10.9 -0.2 -28.5 -0.2 -39 0 -10.6 0.1 -1.6 0.2 19.8 0.2 21.5 0 30.1 -0.1 19.2 -0.2z m35.1 0 c-1.5 -0.2 -4.2 -0.2 -6 0 -1.8 0.2 -0.6 0.4 2.7 0.4 3.3 0 4.8 -0.2 3.3 -0.4z"/>
  <path d="M165.7 318.3 c-0.4 -0.3 -0.7 -1.6 -0.7 -2.9 0 -1.3 -0.8 -2.4 -2 -2.7 -1.6 -0.4 -2 -1.4 -2 -4.6 0 -3.4 0.3 -4.1 2 -4.1 1.3 0 2.2 -0.9 2.6 -2.6 0.6 -2.2 1.1 -2.5 4.8 -2.2 3.3 0.2 4.2 0.7 4.4 2.4 0.2 1.2 1.2 2.4 2.3 2.7 1.5 0.4 1.9 1.4 1.9 4.5 0 3.4 -0.3 4.1 -2.2 4.4 -1.7 0.2 -2.4 1.1 -2.6 3.1 -0.3 2.4 -0.7 2.7 -4.1 2.7 -2.1 0 -4.1 -0.3 -4.4 -0.7z"/>
  <path d="M497 311.8 c0 -5 1.8 -7.5 7.5 -11 2.2 -1.4 4.6 -3.3 5.4 -4.2 0.8 -1 2.9 -1.6 5.2 -1.6 l3.9 0 0 5 c0 4.1 -0.4 5.1 -2.2 6.1 -1.3 0.7 -4.7 3.2 -7.6 5.6 -4 3.2 -6.3 4.3 -8.8 4.3 -3.3 0 -3.4 -0.1 -3.4 -4.2z"/>
  <path d="M555 309 c-15.6 -9 -15 -8.5 -15 -13.5 0 -4.5 0 -4.5 3.6 -4.5 2.4 0 5.7 1.3 10.2 4.1 3.7 2.2 7.6 4.5 8.7 5.2 9.4 5.5 9.5 5.6 9.5 9.7 l0 4 -4.2 -0.1 c-3.2 0 -6.4 -1.3 -12.8 -4.9z"/>
  <path d="M481 308 c-1.1 -1.6 -3.3 -3.5 -4.8 -4.2 -2.1 -1 -2.8 -2.1 -3 -5.1 -0.3 -3.3 0 -3.9 3.3 -5.8 2 -1.2 4.1 -3.3 4.6 -4.5 0.7 -2 1.6 -2.4 4.9 -2.4 3.7 0 4.1 0.3 4.6 3 0.5 2.2 1.4 3.2 4 4 3.1 1 3.4 1.5 3.4 5 0 3.3 -0.5 4.1 -3.5 5.8 -1.9 1.2 -3.7 3.2 -4.1 4.6 -0.5 2.1 -1.2 2.6 -3.9 2.6 -2.6 0 -3.9 -0.7 -5.5 -3z"/>
  <path d="M532.3 67.1 c-0.2 -1 -1.6 -2.4 -2.9 -3 -1.9 -0.8 -2.4 -1.8 -2.4 -4.6 0 -2.8 0.4 -3.6 2.4 -4.1 1.5 -0.3 2.7 -1.5 3 -3 0.5 -2 1.2 -2.4 4.6 -2.4 3.6 0 4 0.3 4 2.4 0 1.8 0.6 2.5 2.3 2.8 1.8 0.2 2.3 1 2.5 4.5 0.3 3.7 0 4.2 -2 4.5 -1.5 0.2 -2.4 1.1 -2.6 2.6 -0.3 1.9 -1 2.2 -4.4 2.2 -3.1 0 -4.1 -0.4 -4.5 -1.9z"/>
  <path d="M554.7 60.3 c-0.2 -0.4 -0.7 -2 -1.1 -3.5 -0.5 -2.1 -1.6 -3 -4.6 -3.9 -3.7 -1.1 -4 -1.5 -4 -4.6 0 -3.1 0.4 -3.6 3.9 -5 2.9 -1.1 4.1 -2.3 4.8 -4.7 0.8 -2.8 1.3 -3.1 4.8 -3.1 3.7 0 4.1 0.3 5 3.3 0.6 2.3 1.7 3.5 3.5 3.9 3.8 0.9 5 2.2 5 5.8 0 2.8 -0.4 3.3 -3.2 4.1 -2.5 0.7 -3.6 1.8 -4.4 4.4 -1 3.1 -1.6 3.5 -5.2 3.8 -2.2 0.2 -4.2 -0.1 -4.5 -0.5z"/>
  <path d="M338 56.3 c-1.4 -0.3 -5.1 -1.6 -8.2 -3 l-5.8 -2.6 -6.2 2.4 c-5.4 2 -8 2.4 -18.8 2.4 -10.1 0 -13.4 -0.4 -17.2 -2 l-4.6 -1.9 -6.9 2.2 c-10.2 3.3 -21.8 3.1 -29 -0.5 -6.2 -3.2 -7.6 -5 -7.1 -9.6 0.3 -2.8 0.7 -3.2 3.5 -3.5 2.3 -0.2 4.6 0.6 8.5 3.3 5 3.5 5.6 3.7 11.1 3.1 5.4 -0.5 14.8 -4.4 16.2 -6.6 1.3 -2.1 6.5 -1 10.9 2.4 7.9 6 19.7 6 31.4 0 8.3 -4.3 11.1 -4.3 16.7 0 8.7 6.6 22.4 6.9 31.7 0.6 3.2 -2.2 5.5 -3 9.1 -3 2.6 0 4.7 0.4 4.7 1 0 0.5 1.8 1.9 4 3 6 3 14 2.7 21.6 -0.9 3.4 -1.6 6.5 -3.4 6.8 -4 1.4 -2.1 8.6 -1.3 11.8 1.4 4.2 3.6 7.2 4 13.7 2 3.1 -0.9 7 -1.5 8.6 -1.3 2.7 0.3 3 0.7 3.3 4 0.3 2.9 -0.2 4 -2 5.2 -3.4 2.2 -19.9 3.1 -26.3 1.4 -4.5 -1.2 -5.6 -1.1 -11.9 1 -8.7 2.8 -22.7 3.1 -29.9 0.5 -4.5 -1.6 -5 -1.6 -9.5 0.1 -2.6 1 -6.3 2.2 -8.2 2.7 -3.6 0.9 -17.4 1 -22 0.2z"/>
  <path d="M481.6 47.6 c-0.3 -1.3 -1.5 -2.6 -2.6 -2.9 -2.9 -0.8 -2.9 -8.2 0 -9 1.4 -0.3 2 -1.4 2 -3.2 0 -2.5 0.2 -2.6 4.3 -2.3 3.5 0.2 4.3 0.7 4.5 2.6 0.2 1.2 1 2.2 1.8 2.2 1 0 1.4 1.3 1.4 4.5 0 3.3 -0.4 4.5 -1.5 4.5 -1 0 -1.5 1 -1.5 3 0 2.8 -0.2 3 -3.9 3 -3.3 0 -4 -0.4 -4.5 -2.4z"/>
  <path d="M514.5 46.8 c-0.3 -1.3 -0.9 -4.1 -1.3 -6.3 -0.7 -3.7 -1.2 -4.1 -5.2 -5.3 -8.9 -2.6 -9.2 -2.8 -8.8 -6.9 0.3 -3.7 0.4 -3.8 5.7 -5 2.9 -0.6 5.8 -1.6 6.5 -2.3 0.6 -0.6 1.6 -3.4 2.1 -6.3 l1 -5.2 4.6 -0.3 4.5 -0.3 2 6.2 1.9 6.2 5.5 1.6 c5.4 1.6 5.5 1.7 5.8 5.8 0.3 3.9 0.1 4.3 -2.5 4.8 -1.5 0.3 -4.4 1.3 -6.3 2.3 -3.4 1.7 -3.8 2.5 -5.5 10.5 -0.5 2.5 -0.9 2.7 -5 2.7 -3.8 0 -4.5 -0.3 -5 -2.2z"/>
 </g>
 <g fill="#ffffff">
  <path d="M0 176.5 l0 -176.5 353.5 0 353.5 0 0 176.5 0 176.5 -353.5 0 -353.5 0 0 -176.5z m144.2 156.8 c0.6 -2.3 1.5 -3.2 3.8 -3.6 3.8 -0.8 3.8 -2.3 0 -4.5 -1.6 -0.9 -3.4 -2.9 -3.9 -4.4 -1.2 -3.5 -3.7 -3.6 -4.5 -0.2 -0.5 1.7 -1.9 3 -4.2 4 -2.9 1.2 -3.4 1.7 -2.4 2.9 0.7 0.8 2 1.5 3 1.5 1.1 0 2.3 1.5 3.3 4.1 1.8 4.7 3.7 4.8 4.9 0.2z m380.1 -10.5 c5.8 -13.2 9.7 -24.7 8.5 -25.4 -1.1 -0.7 -2.8 1.3 -2.8 3.2 0 1 -2.5 7 -7.6 18.1 -1.4 3.2 -4.4 11.2 -4.4 11.9 0 0.2 0.6 0.4 1.3 0.4 0.7 0 2.9 -3.7 5 -8.2z m-420.5 -6.9 c2 -6.7 2.5 -7.2 7.6 -8.5 8.1 -2.1 8.5 -2.5 4.6 -3.9 -1.9 -0.8 -4.7 -1.4 -6.1 -1.4 -3.5 -0.1 -4.6 -1.6 -5.4 -7.3 -1.2 -7.7 -4.7 -9 -5.9 -2.2 -1.3 6.5 -2.6 8.3 -7 9.5 -7.1 1.8 -7.6 2 -7.1 2.9 0.3 0.4 2.4 1.1 4.8 1.5 6 1 7.5 2 8.2 5.7 1 5.3 2.7 8.9 3.9 8.5 0.6 -0.2 1.7 -2.3 2.4 -4.8z m67.4 -2.6 c0.2 -2 0.9 -2.9 2.6 -3.1 2.7 -0.4 2.9 -2.2 0.3 -2.9 -1.1 -0.3 -2.1 -1.4 -2.3 -2.6 -0.4 -3 -2.5 -3.2 -3.2 -0.2 -0.4 1.6 -1.3 2.5 -2.6 2.5 -2.6 0 -2.6 2 0 2.7 1.2 0.3 2 1.4 2 2.7 0 4.3 2.7 5 3.2 0.9z m335.8 -5.3 c2.5 -2 5.5 -4.2 6.8 -4.9 1.2 -0.6 2.2 -2.1 2.2 -3.1 0 -2.4 -1.3 -2.6 -3.1 -0.4 -0.8 0.9 -3.2 2.8 -5.4 4.2 -4.4 2.7 -7.4 6 -7.5 8 0 1.6 1.1 1 7 -3.8z m62 2 c0 -0.9 -2.6 -2.7 -9.5 -6.7 -1.1 -0.7 -5 -3 -8.7 -5.2 -7.5 -4.6 -7.8 -4.7 -7.8 -2.6 0 1.6 2 3 15 10.5 8.6 4.9 11 5.8 11 4z m-77.1 -9.5 c4 -2 3.9 -3.1 -0.3 -4.5 -2.6 -0.8 -3.5 -1.8 -4 -4 -0.7 -3.6 -2.3 -3.9 -3.5 -0.6 -0.5 1.2 -2.6 3.3 -4.6 4.5 -3.1 1.8 -3.5 2.4 -2.5 3.6 0.7 0.8 1.8 1.5 2.6 1.5 0.7 0 2.5 1.6 4 3.6 l2.7 3.5 1.3 -3 c0.7 -1.6 2.6 -3.7 4.3 -4.6z m-362.4 0.5 c0.9 -1.6 2.2 -3 3 -3 2.2 0 1.8 -2.1 -0.4 -2.7 -1.1 -0.3 -2.2 -1.6 -2.5 -2.9 -0.8 -3.1 -2.2 -3.1 -3 0.1 -0.4 1.4 -1.3 2.5 -2.1 2.5 -1.9 0 -1.9 1.4 -0.1 2.9 0.8 0.7 1.7 2.3 2 3.6 0.8 3.2 1.2 3.1 3.1 -0.5z m48 -11 c7.2 -0.6 21.6 -2 32 -3.1 104 -10.7 155.7 -13.3 214 -10.4 48.3 2.3 54 2.6 68.5 3.5 8 0.6 18 1 22.2 1 7.6 0 7.9 0.1 12 3.8 l4.1 3.7 -0.6 -3 -0.6 -3 8.2 0.7 c4.5 0.4 14.3 1 21.7 1.3 l13.5 0.7 16 -4.9 c8.8 -2.8 18.7 -5.7 22 -6.5 3.3 -0.9 13.2 -3.8 22 -6.6 8.8 -2.7 17.8 -5.3 20 -5.7 4.7 -0.8 10.7 -2.6 22.8 -6.8 9.9 -3.4 11.6 -5.1 12.8 -12.5 1.1 -7.2 -2.5 -150.5 -3.9 -154.2 -0.5 -1.4 -2 -3.4 -3.2 -4.5 -2.2 -2 -3.5 -2 -255.9 -1.9 -230.8 0.1 -313.1 0.6 -334.1 1.9 -57.9 3.8 -64.6 4.5 -68.2 7.4 -2.4 2 -2.4 -0.9 -1 107.3 0.7 51.3 0.8 52.7 2.8 55.5 2.2 3 10.5 6.7 17.6 7.8 2.4 0.4 15 3.6 28.2 7.1 13.1 3.5 24.5 6.4 25.4 6.4 1.8 0 33.2 8.4 42.2 11.3 15.1 4.8 19.7 5.3 39.5 3.7z m360.7 -226.2 c0.2 -1.5 1.1 -2.4 2.6 -2.6 2.8 -0.4 2.4 -2.6 -0.6 -3 -1.6 -0.2 -2.2 -1 -2.2 -2.8 0 -3.1 -1.8 -3.1 -2.5 -0.1 -0.4 1.3 -1.8 2.8 -3.3 3.4 l-2.7 1 2.7 1.3 c1.4 0.7 2.9 2.1 3.1 3.1 0.7 2.6 2.5 2.4 2.9 -0.3z m23.2 -9.8 c0.8 -2.5 2 -3.6 4.5 -4.5 2.6 -0.8 3 -1.3 2 -2.2 -0.8 -0.5 -2.5 -1.3 -3.9 -1.6 -1.8 -0.4 -2.9 -1.6 -3.5 -3.9 -1.2 -4 -2.7 -4 -3.9 0 -0.6 2.2 -1.9 3.4 -5 4.7 l-4.1 1.7 4.3 1.5 c3.2 1.1 4.4 2.1 4.8 4.1 1.3 5.4 3 5.5 4.8 0.2z m-197.4 -3.1 c3 -1.2 6.3 -2.9 7.3 -3.7 1.5 -1.3 1.9 -1.3 3.5 0 3.2 2.8 10.2 4.8 16.5 4.8 6.5 0 17.1 -2.7 21.4 -5.5 2.2 -1.5 2.6 -1.5 4.2 -0.1 4.1 3.7 20.5 4.3 26 0.9 3.7 -2.4 1.1 -3.6 -3.8 -1.8 -2.4 0.8 -6.7 1.5 -9.5 1.5 -4.8 0 -6.6 -0.7 -12.8 -5.2 -1.4 -1 -2 -0.9 -3.5 0.4 -1 1 -4.4 2.9 -7.6 4.3 -7.9 3.6 -20.1 3.9 -26.4 0.6 -2.4 -1.2 -4.3 -2.6 -4.3 -3.1 0 -1.9 -3.5 -1 -7.8 1.9 -10.2 6.9 -28.8 6.6 -38 -0.7 l-3.9 -3.1 -6.9 3.5 c-5.5 2.7 -8.5 3.6 -15 4.1 -11.4 0.8 -16.5 -0.2 -21.9 -4.2 -2.5 -1.9 -4.7 -3 -5 -2.4 -0.4 0.5 -3 2.1 -5.8 3.6 -4 2 -7.1 2.7 -13.7 3.1 -8.4 0.4 -8.5 0.4 -13.7 -3.2 -5 -3.4 -7.6 -3.6 -5 -0.4 2.7 3.5 11 6.8 16.9 6.8 6.1 0 17 -3.2 20.1 -5.8 1.5 -1.3 1.9 -1.3 3.5 -0.1 0.9 0.8 4.3 2.5 7.5 3.8 8.3 3.3 20 2.6 30.7 -1.8 l7.5 -3.1 5.6 3 c3.1 1.6 7.4 3.4 9.5 4 6.1 1.5 18.1 0.5 24.4 -2.1z m123 -6.9 c0 -2 0.5 -3 1.5 -3 0.8 0 1.5 -0.7 1.5 -1.5 0 -0.8 -0.6 -1.5 -1.4 -1.5 -0.8 0 -1.6 -1 -1.8 -2.2 -0.5 -3.2 -2.8 -3.5 -2.8 -0.3 0 1.8 -0.6 2.9 -2 3.2 -2.6 0.7 -2.6 2.3 0 3 1.1 0.3 2.3 1.6 2.6 2.9 0.9 3.4 2.4 3 2.4 -0.6z m34.5 -0.7 c1.7 -8 2.1 -8.8 5.5 -10.5 1.9 -1 4.8 -2 6.3 -2.3 4.2 -0.8 2.8 -2.8 -3.4 -4.6 l-5.4 -1.6 -1.9 -6.2 c-2.7 -8.3 -4.9 -8.4 -6.1 -0.1 -0.7 5.5 -2.9 7.5 -8.9 8.4 -7.9 1.2 -7 2.7 3.4 5.8 4 1.2 4.5 1.6 5.2 5.3 1.5 7.6 1.8 8.5 3.3 8.5 0.8 0 1.7 -1.2 2 -2.7z"/>
  <path d="M140.6 329.5 c-2 -2 -2 -2.9 0 -4.6 1.3 -1 1.7 -1 2.5 0.2 1.1 1.8 1.1 3 0 4.7 -0.6 1.1 -1.1 1 -2.5 -0.3z"/>
  <path d="M99.7 310 c-0.4 -1.9 -1.6 -3.4 -3.2 -4.2 l-2.5 -1.1 2.3 -1.1 c1.2 -0.6 2.6 -2.6 3.2 -4.4 1.2 -4.1 2.2 -4.1 3.3 0.1 0.5 1.8 1.8 3.7 3.1 4.3 2.3 1.2 2.3 1.2 0.2 1.9 -1.2 0.4 -2.4 1.9 -2.9 3.7 -1.1 4.2 -2.8 4.6 -3.5 0.8z"/>
  <path d="M484.4 299.5 c-0.9 -2.3 1.4 -4.5 2.6 -2.5 0.5 0.8 0.8 1.9 0.7 2.4 -0.6 1.7 -2.7 1.8 -3.3 0.1z"/>
  <path d="M147 285.9 c-10.1 -3.6 -28.3 -8.7 -43.5 -12.3 -6 -1.4 -17.5 -4.5 -25.5 -6.7 -8 -2.3 -16.7 -4.5 -19.5 -4.9 -6.3 -1 -21.9 -5.3 -26.5 -7.2 -1.9 -0.8 -4.1 -2.3 -4.9 -3.2 -2 -2.4 -2.7 -21.7 -3.6 -96.2 -0.9 -71 -2.4 -63.7 13.1 -64.7 5.4 -0.3 18.5 -1.3 28.9 -2.1 10.5 -0.8 32.3 -1.8 48.5 -2.1 16.2 -0.4 31.1 -0.8 33 -1 1.9 -0.2 121.6 -0.7 266 -1.1 l262.5 -0.7 2.8 2.4 c4.5 3.9 4.8 7.7 6.7 110.4 0.7 36 0.6 47.6 -0.3 49.5 -1.6 3.3 -10.5 6.3 -56.7 19.3 -6.9 1.9 -17 4.9 -22.5 6.5 -5.5 1.7 -15.4 4.5 -22 6.4 -13.5 3.7 -17.5 3.9 -43.9 1.6 l-14.8 -1.3 -4.7 -5.4 -4.6 -5.4 12.5 0.7 c6.9 0.3 16.3 1.1 21 1.6 17 2 23.1 1.4 38.8 -3.4 7.9 -2.5 16.5 -4.8 19 -5.2 2.6 -0.4 6.3 -1.2 8.2 -2 1.9 -0.7 8.2 -2.7 14 -4.4 5.8 -1.8 12.5 -3.8 14.8 -4.6 2.4 -0.8 9.1 -2.6 15 -3.9 11.3 -2.7 16.6 -5.3 17.9 -8.8 0.9 -2.6 0.7 -12.8 -0.8 -42.2 -0.6 -12.1 -1.2 -37.7 -1.4 -57 -0.3 -33.3 -1.2 -44.6 -3.6 -47 -1.4 -1.4 -382.4 -0.9 -386.1 0.6 -1.5 0.6 -2.9 1.7 -3.2 2.5 -0.3 0.8 0.3 6.1 1.4 11.7 3.2 17.2 5.9 34.8 6.5 43.7 0.4 4.7 1.5 14.6 2.6 22 2.8 19.6 10.8 88.4 10.4 88.9 -0.3 0.2 -8 0.7 -17.2 1.2 -19.9 1 -62.2 4.9 -88.8 8.3 -36.8 4.7 -36.6 4.7 -47.1 0.7 -7.5 -2.8 -24.3 -7.8 -32.9 -9.7 l-4 -0.9 -0.6 -16.5 c-0.7 -17.3 -1.5 -21.2 -4.8 -23 -2.6 -1.3 -26.3 -8.8 -30.8 -9.6 -1.8 -0.3 -3.5 -0.9 -3.7 -1.3 -0.2 -0.3 -0.7 -6 -1 -12.6 -1.3 -22.4 -4.5 -78 -5.1 -85.5 -0.7 -10.8 -1.2 -12 -4.6 -12 -3 0 -25.8 4.6 -26.6 5.4 -0.7 0.6 1.8 128.6 2.6 133.1 0.6 3.9 0.8 4.1 7.1 6.1 3.6 1.2 9.2 2.8 12.5 3.7 3.3 0.8 10.1 2.7 15 4.2 15 4.5 25.6 7.4 34.5 9.5 4.7 1.1 16.2 4.3 25.5 7.1 9.4 2.8 19.4 5.5 22.4 6 3 0.6 5.7 1.1 6 1.3 0.7 0.5 24.8 -1.7 48.6 -4.4 47.6 -5.3 98.1 -9.3 139.2 -11 23.3 -1 69.1 0.4 112.8 3.4 11.6 0.8 27.5 1.8 35.4 2.2 13.4 0.6 14.6 0.9 16.5 3 4.4 4.9 6.6 7.7 6.2 8.2 -0.3 0.2 -8.7 -0.1 -18.8 -0.7 -10.1 -0.6 -31.6 -1.6 -47.8 -2.1 -16.2 -0.6 -41.4 -1.5 -55.9 -2 -27 -1.1 -40.9 -0.7 -92.8 2.5 -13.3 0.8 -31.5 2.1 -40.5 3 -33.8 3.1 -38.5 3.6 -45.8 4.5 -4.1 0.5 -10.9 1.2 -15 1.5 -4.1 0.4 -14.7 1.5 -23.4 2.6 -20.3 2.4 -22.3 2.3 -32.6 -1.2z m49.2 -25.2 c0.1 -0.1 0.5 -15.3 0.8 -33.7 l0.5 -33.5 16.5 -1.2 c9.1 -0.7 17.1 -1.5 17.8 -1.8 1.4 -0.5 1.7 -19.1 0.3 -21.4 -0.8 -1.2 -3.2 -1.3 -14.3 -0.6 -21.2 1.3 -20.2 1.4 -20.7 -1.5 -0.2 -1.4 0 -10.7 0.4 -20.7 l0.7 -18.3 16.7 0 c9.1 0 18.3 -0.3 20.4 -0.6 l3.7 -0.7 0 -15.6 c0 -8.6 -0.4 -16.2 -0.9 -17 -0.7 -1.1 -3.1 -1.2 -14.7 -0.1 -7.7 0.6 -15 1.3 -16.4 1.6 -1.4 0.2 -7.2 0.7 -13 1 -5.8 0.4 -12.3 0.9 -14.5 1.3 l-4 0.7 -0.8 7.9 c-0.4 4.4 -0.8 40.9 -1 81 l-0.2 73 5 0.5 c4.2 0.4 17.1 0.2 17.7 -0.3z m-59 -0.8 c2 -1.1 2 -1.6 1.4 -18.3 -0.3 -9.4 -0.7 -26.8 -0.8 -38.6 l-0.2 -21.5 6.8 -14 c3.8 -7.7 9.3 -18.9 12.2 -25 3 -6 5.4 -11.4 5.4 -11.9 0 -0.5 2 -5.3 4.5 -10.7 2.5 -5.4 4.5 -10.4 4.5 -11.1 0 -0.8 -4.7 -3 -11.7 -5.3 -6.4 -2.2 -13.2 -4.6 -15.1 -5.3 -1.8 -0.6 -3.8 -0.9 -4.3 -0.6 -1.2 0.7 -5.9 11.1 -5.9 13 0 0.8 -0.5 2.2 -1 3.2 -0.6 0.9 -2.4 4.9 -4 8.7 -1.6 3.9 -3.4 7 -4 7 -0.7 0 -2.9 -3.3 -5.1 -7.3 -7.8 -14.5 -15.5 -25.7 -17.5 -25.4 -1.1 0.2 -6.5 2.6 -12.2 5.2 -11.9 5.7 -11.6 4.6 -4.8 17 2.3 4.1 4.8 9.1 5.6 11 0.7 1.9 6.6 13.9 13 26.6 l11.7 23 0.7 37.8 c0.4 20.8 0.9 38.4 1.2 39.2 0.2 0.8 0.6 2.1 0.9 2.9 0.3 1.2 2.2 1.5 8.5 1.5 4.5 0 9.1 -0.5 10.2 -1.1z m134.9 -2.3 c10.3 -0.7 19.2 -1.7 19.8 -2 1.4 -0.9 1.4 -9.6 0.1 -13.2 l-1.1 -2.7 -8.8 0.6 c-9.8 0.7 -11.1 0.2 -11.1 -4.9 0 -3.9 1.1 -4.4 10.5 -4.4 9.3 0 10 -0.8 9.2 -9.7 -0.4 -3.7 -1.2 -7 -1.9 -7.5 -1.2 -0.7 -8 -0.3 -13.4 0.7 -5.1 1.1 -5.8 -2.6 -6.6 -33 l-0.2 -7 8.5 -0.8 c10.4 -0.9 11.3 -1.8 10.6 -10.1 -0.3 -3.3 -1.1 -6.3 -1.9 -6.8 -0.7 -0.5 -5 -0.6 -9.5 -0.2 -8 0.6 -8.2 0.6 -8.7 -1.7 -0.7 -3.7 -1.5 -34.4 -0.9 -36.7 0.4 -1.7 1.6 -2.1 7.9 -2.7 4.1 -0.4 7.4 -1 7.4 -1.4 0 -1.4 -4.1 -19.5 -4.6 -20.3 -0.5 -0.8 -24.3 -0.2 -28.9 0.7 -2 0.4 -2 1.1 -1.7 80.7 0.3 47.2 0.8 81 1.3 82.1 1.1 2 0.2 2 24 0.3z"/>
  <path d="M175.7 258.3 c-0.5 -1 1.1 -154.5 1.7 -155.9 0.2 -0.6 3.7 -1.4 7.8 -1.7 7.4 -0.7 34.9 -3.2 44.5 -4.2 l5.1 -0.5 0.7 6.3 c0.3 3.4 0.5 9.8 0.3 14.2 l-0.3 8 -19.7 0 c-10.8 0.1 -19.9 0.3 -20.2 0.6 -1 1 -1.7 45.4 -0.8 46.8 0.9 1.2 3.3 1.3 17.1 0.1 9.8 -0.8 16.5 -1 17 -0.4 0.5 0.5 1.1 4.2 1.4 8.1 0.5 6.3 0.3 7.4 -1.2 8.2 -1.7 0.9 -5.9 1.4 -25 2.6 -4.7 0.3 -8.7 0.8 -9 1.1 -0.3 0.3 -0.7 15.6 -0.9 34 l-0.3 33.4 -8.9 0 c-4.9 0 -9.1 -0.3 -9.3 -0.7z"/>
  <path d="M119.8 219.3 l-0.3 -38.8 -6.8 -13.5 c-3.8 -7.4 -8.9 -17.5 -11.4 -22.5 -2.5 -4.9 -5.3 -10.3 -6.3 -12 -1 -1.6 -2.3 -4.7 -3 -6.8 -0.7 -2.2 -2.7 -6.6 -4.6 -9.9 -3.8 -6.6 -4.2 -8.8 -1.8 -8.8 0.9 0 5.2 -1.6 9.6 -3.5 7.6 -3.4 8.1 -3.5 9.4 -1.8 0.7 1 1.4 2.2 1.4 2.6 0 0.4 3.2 6 7 12.3 3.9 6.4 7 11.9 7 12.4 0 1.4 4.1 6 5.4 6 1.3 0 6.6 -10.9 11.6 -24 1.8 -4.7 3.6 -8.9 4.1 -9.4 0.4 -0.5 4 0.2 8.1 1.7 4 1.3 9.9 3.2 13.1 4.1 3.1 1 5.7 1.8 5.7 2 0 0.5 -7.8 17.4 -13.6 29.3 -3 6.2 -5.4 11.7 -5.4 12.3 0 0.6 -3.4 7.7 -7.6 15.7 l-7.5 14.6 0.5 8.1 c0.3 4.5 0.7 21.6 0.8 38.1 l0.3 30 -7.7 0.3 -7.7 0.3 -0.3 -38.8z"/>
  <path d="M254.3 240.4 c-0.8 -2 0.8 -3.6 2.6 -2.5 1.5 1 0.8 4.1 -0.9 4.1 -0.6 0 -1.3 -0.7 -1.7 -1.6z"/>
  <path d="M254.2 220.4 c0.4 -2.1 2.2 -2.3 2.6 -0.1 0.2 1 -0.3 1.7 -1.3 1.7 -1 0 -1.5 -0.6 -1.3 -1.6z"/>
  <path d="M254 202 c0 -1.1 0.7 -2 1.5 -2 0.8 0 1.5 0.9 1.5 2 0 1.1 -0.7 2 -1.5 2 -0.8 0 -1.5 -0.9 -1.5 -2z"/>
  <path d="M254 180 c0 -1.5 0.5 -2 1.8 -1.8 0.9 0.2 1.7 1 1.7 1.8 0 0.8 -0.8 1.6 -1.7 1.8 -1.3 0.2 -1.8 -0.3 -1.8 -1.8z"/>
  <path d="M254.6 161.1 c-0.9 -1.4 0.5 -4.2 1.8 -3.8 1.5 0.5 1.4 3.9 -0.1 4.4 -0.6 0.2 -1.4 0 -1.7 -0.6z"/>
  <path d="M254.4 140.9 c-0.8 -1.4 1.1 -3.3 2.5 -2.5 1.6 1 1.3 3.6 -0.3 3.6 -0.8 0 -1.8 -0.5 -2.2 -1.1z"/>
  <path d="M253.7 123.4 c-1.4 -1.4 -0.7 -3.5 1.1 -3.2 0.9 0.2 1.7 1 1.7 1.7 0 1.6 -1.8 2.5 -2.8 1.5z"/>
  <path d="M253.1 104.7 c-1.3 -1.7 -0.4 -5 1.3 -4.4 1.5 0.5 2 3.7 0.9 4.8 -0.6 0.6 -1.4 0.4 -2.2 -0.4z"/>
  <path d="M86.5 253.1 c-10.4 -3.2 -22.8 -6.8 -27.5 -8 -4.7 -1.2 -10.5 -2.8 -13 -3.5 l-4.5 -1.2 -0.6 -14.5 c-0.4 -7.9 -0.9 -28.6 -1.3 -45.9 -0.4 -17.3 -1.1 -40.2 -1.6 -50.9 -0.4 -10.6 -0.6 -20 -0.3 -20.7 0.6 -1.6 0.8 -1.6 14.8 -3.8 5.4 -0.9 10.2 -1.2 10.6 -0.8 0.4 0.4 0.9 9.3 1.2 19.7 0.7 25.1 4.9 88 6 89.1 0.2 0.3 8.2 2.7 17.7 5.4 9.5 2.7 17.7 5.3 18.2 5.8 1.4 1.4 2.7 13.3 2.8 25 0 9.1 -0.2 10.2 -1.7 10.1 -1 0 -10.3 -2.6 -20.8 -5.8z"/>
  <path d="M325 257.8 c0 -0.2 -1.1 -8.4 -2.5 -18.3 -1.4 -9.9 -3 -22.7 -3.6 -28.5 -0.6 -5.8 -3.1 -22.9 -5.6 -38 -5.1 -31.6 -4.5 -27.6 -7.4 -49 -1.3 -9.1 -2.8 -16.8 -3.3 -17.3 -0.6 -0.4 -3.9 -0.6 -7.3 -0.4 -6.1 0.3 -6.3 0.2 -7.2 -2.5 -0.9 -2.5 -0.7 -2.9 1.7 -3.5 1.5 -0.4 6.3 -0.7 10.7 -0.7 l7.9 -0.1 1.7 6 c1.5 5.4 5.9 28.1 9 47.3 1.3 7.7 2.3 9.6 3.2 5.9 2.3 -9.4 8.8 -44.7 9.4 -51.2 l0.8 -8 6.5 -0.6 c3.6 -0.4 7.7 -0.5 9.3 -0.2 3.2 0.7 3.4 2 1.2 12.5 -0.9 4 -2.3 12.5 -3.1 18.8 -0.8 6.3 -2 13.5 -2.5 16 -2.9 13 -10.6 63.1 -12.9 84.5 -0.7 6.1 -1.6 13 -2 15.5 -0.5 2.5 -1.1 6.2 -1.5 8.3 -0.3 2 -1 3.7 -1.5 3.7 -0.6 0 -1 -0.1 -1 -0.2z"/>
  <path d="M513.2 256.3 c-2.6 -0.4 -3.8 -1.4 -6.7 -5.8 -1.9 -3 -3.8 -6.7 -4.1 -8.2 -0.4 -1.6 -1.6 -4.4 -2.7 -6.3 -1.1 -1.9 -3.3 -6.2 -5 -9.5 -1.6 -3.3 -3.8 -7.1 -4.7 -8.5 -1 -1.4 -2.1 -3.6 -2.5 -5 -0.4 -1.4 -3.2 -6.9 -6.1 -12.3 -6.6 -12 -6.6 -11.8 -10 -19 -2.6 -5.5 -5.7 -8.7 -6.7 -7 -0.3 0.5 -0.1 8.5 0.4 17.8 0.4 9.4 0.9 26.2 1.1 37.5 l0.3 20.5 -7 0.5 c-3.9 0.3 -8.6 0.3 -10.5 0 l-3.5 -0.5 -1.2 -37 c-0.7 -20.3 -1.9 -53.4 -2.6 -73.5 -0.8 -20.1 -1.1 -36.8 -0.8 -37.1 0.3 -0.4 5.5 -0.9 11.4 -1.2 10.9 -0.6 10.9 -0.6 13.4 2.1 1.4 1.5 4.4 6.5 6.8 11.2 2.3 4.7 5.6 11 7.4 14 1.7 3 6.1 11.3 9.7 18.5 3.6 7.1 7.3 14 8.3 15.5 1 1.4 2.5 4.5 3.5 6.9 0.9 2.4 2.6 5.5 3.6 6.9 1.7 2.1 2.1 2.2 2.6 0.7 0.6 -1.4 -1.1 -57.3 -2.1 -68.8 -0.5 -6 0.9 -6.7 13.6 -6.7 10.4 0 11 0.1 11.8 2.3 0.4 1.2 1.4 35.2 2 75.5 1.4 85.2 2.4 77.3 -9.3 77 -3.9 0 -8.6 -0.3 -10.4 -0.5z"/>
  <path d="M570.2 256 c-3.1 -1.3 -4.5 -5.5 -3.8 -11.5 0.5 -4.1 3.1 -75.3 3.9 -106.5 l0.2 -8.5 -12 -0.8 c-6.6 -0.4 -12.4 -1.2 -12.8 -1.6 -1.1 -1.1 -2.2 -19.1 -1.3 -22.5 l0.6 -2.6 30.8 0 c33.1 0 37.7 0.4 38.7 2.9 0.8 1.9 0.7 23.3 -0.1 24.1 -0.3 0.3 -4.9 0.5 -10.1 0.6 l-9.5 0.1 -0.3 4.4 c-0.3 3.8 -3 81.2 -3.8 110 -0.3 12.5 -0.7 12.9 -10.6 12.8 -4.2 0 -8.6 -0.4 -9.9 -0.9z"/>
  <path d="M310 249.4 c-0.9 -1 -1 -1.8 -0.2 -2.6 1.2 -1.2 3.2 -0.2 3.2 1.7 0 2.1 -1.6 2.6 -3 0.9z"/>
  <path d="M366.1 244.7 c-0.9 -1.1 -1.4 -18 -2.1 -65.8 -0.5 -35.4 -1 -66.7 -1 -69.5 0 -3.9 0.4 -5.3 1.6 -5.8 1.6 -0.6 19.4 -2 41.5 -3.2 12.1 -0.6 12.7 -0.6 13.8 1.4 1.4 2.7 1.5 20.9 0 21.8 -0.6 0.3 -8.1 1 -16.7 1.5 -8.7 0.5 -16.3 1.2 -17.1 1.4 -1.2 0.5 -1.3 3.8 -0.7 20.2 0.3 10.8 0.8 19.8 1 20.1 0.2 0.2 7 -0.2 15.2 -0.9 18.1 -1.4 17.4 -2 17.4 12.7 0 5.7 -0.3 10.5 -0.8 10.8 -0.4 0.2 -7.3 0.8 -15.2 1.2 -8.7 0.4 -14.8 1.1 -15.2 1.8 -0.9 1.3 -1 18.6 -0.2 23.9 l0.7 3.7 17.4 0 17.3 0 1 2.6 c0.6 1.4 1 6.5 1 11.4 0 7.5 -0.3 9.1 -1.7 9.8 -1 0.5 -14 1.3 -28.9 1.6 -23.1 0.6 -27.2 0.5 -28.3 -0.7z"/>
  <path d="M336.7 243.3 c-1.1 -1 -0.8 -4.1 0.4 -4.9 1.7 -1 3.2 1.2 2.4 3.5 -0.6 2.1 -1.6 2.6 -2.8 1.4z"/>
  <path d="M632.5 239 c-2.2 -0.4 -5.5 -1.5 -7.4 -2.6 -1.8 -1 -4.4 -2.5 -5.6 -3.2 -2.9 -1.6 -10.2 -14 -11.7 -19.9 -1.5 -6 -0.5 -19.3 1.7 -23 1 -1.5 3 -3.9 4.7 -5.2 2.7 -2.2 3.1 -2.2 6.5 -1 4.2 1.7 6.8 5.9 8.3 13.9 1.2 6.1 2 7 7.2 7 5.6 0 6.8 -1.9 6.8 -10.9 0 -9 -1 -12 -7.9 -23 -12.1 -19.3 -15.6 -33.5 -11.2 -45.3 4 -10.4 12.6 -16.9 23.7 -17.6 4.7 -0.3 7 0 10.1 1.7 4.7 2.3 10.8 9 12.9 14 1.5 3.5 2 20.7 0.6 22.7 -2.2 3.4 -9.7 3.7 -12.5 0.5 -0.8 -0.9 -2 -3.4 -2.7 -5.6 -1.7 -5.3 -3.7 -7.5 -7.1 -7.5 -8.8 0 -7.3 14.9 3 28.5 5.6 7.4 11.6 19 14.1 27.4 1.9 6.1 2.2 8.9 1.7 16.5 -0.5 10 -2.1 14.6 -7.4 21.8 -5.7 7.9 -17.3 12.4 -27.8 10.8z"/>
  <path d="M553.8 237.8 c-0.7 -2.1 0.3 -4.8 1.9 -4.8 1 0 1.3 0.9 1.1 2.7 -0.3 2.8 -2.3 4.2 -3 2.1z"/>
  <path d="M307.6 233.3 c-1.2 -1.2 -0.6 -4.3 0.9 -4.3 0.8 0 1.5 0.2 1.5 0.4 0 0.2 0.3 1.1 0.6 1.9 0.5 1.5 -1.9 3.1 -3 2z"/>
  <path d="M338.7 226.6 c-0.3 -0.8 0 -2.2 0.8 -3.3 1.3 -1.7 1.4 -1.7 2 0 0.8 2 0 4.7 -1.4 4.7 -0.5 0 -1.1 -0.6 -1.4 -1.4z"/>
  <path d="M554 219.3 c0 -1.6 0.4 -3.4 0.9 -4.2 1.2 -1.9 3.2 1.8 2.4 4.7 -0.8 3.2 -3.3 2.8 -3.3 -0.5z"/>
  <path d="M304.4 215.5 c-0.9 -2.3 1.4 -4.5 2.6 -2.5 0.5 0.8 0.8 1.9 0.7 2.4 -0.6 1.7 -2.7 1.8 -3.3 0.1z"/>
  <path d="M341.3 210.4 c-0.8 -2.1 1.3 -4.2 2.8 -2.7 1.3 1.3 0.5 4.3 -1.1 4.3 -0.6 0 -1.3 -0.7 -1.7 -1.6z"/>
  <path d="M555.4 203.6 c-0.8 -2.2 -0.1 -5.9 1.4 -6.4 0.8 -0.2 1.2 0.8 1.2 3.2 0 3.7 -1.6 5.7 -2.6 3.2z"/>
  <path d="M302.2 196.9 c0.1 -1.3 0.8 -2.3 1.3 -2.1 1.5 0.3 1.2 3.5 -0.3 4 -0.9 0.3 -1.3 -0.3 -1 -1.9z"/>
  <path d="M344.6 195.3 c-1.2 -1.2 -0.6 -4.3 0.9 -4.3 0.8 0 1.5 0.9 1.5 1.9 0 2.1 -1.3 3.4 -2.4 2.4z"/>
  <path d="M556.2 181.9 c0.2 -2.4 0.8 -4.3 1.3 -4.1 1.5 0.3 1.2 7.5 -0.3 8 -1 0.3 -1.2 -0.7 -1 -3.9z"/>
  <path d="M300.3 179.4 c-0.8 -2 1.3 -4.2 2.7 -2.8 1.2 1.2 0.3 4.4 -1.1 4.4 -0.5 0 -1.2 -0.7 -1.6 -1.6z"/>
  <path d="M347 177.6 c0 -1.4 0.5 -2.6 1 -2.6 0.6 0 1 0.9 1 1.9 0 1.1 -0.4 2.3 -1 2.6 -0.6 0.4 -1 -0.5 -1 -1.9z"/>
  <path d="M605.6 174.3 c-1.2 -1.3 -0.6 -5.3 0.9 -5.3 0.9 0 1.5 0.9 1.5 2.4 0 2.6 -1.2 4 -2.4 2.9z"/>
  <path d="M557.7 166.4 c-1 -1.1 -0.9 -5.2 0.2 -5.9 1.3 -0.8 2.4 3.2 1.4 5 -0.5 0.9 -1.2 1.2 -1.6 0.9z"/>
  <path d="M348.3 162.4 c-0.8 -2.1 1.3 -4.2 2.8 -2.7 1.3 1.3 0.5 4.3 -1.1 4.3 -0.6 0 -1.3 -0.7 -1.7 -1.6z"/>
  <path d="M299.1 162.1 c-0.8 -0.6 -1.1 -1.6 -0.7 -2.7 0.6 -1.6 0.8 -1.6 2.3 -0.1 2 1.9 0.6 4.1 -1.6 2.8z"/>
  <path d="M606.4 158.6 c-0.8 -2.1 0.3 -4.9 1.6 -4.1 0.5 0.3 1 1.5 1 2.5 0 2.5 -1.8 3.6 -2.6 1.6z"/>
  <path d="M558 147 c0 -1.8 0.4 -2.9 1 -2.5 0.6 0.3 1 1.5 1 2.5 0 1 -0.4 2.2 -1 2.5 -0.6 0.4 -1 -0.7 -1 -2.5z"/>
  <path d="M350 146.8 c0 -2.2 1.7 -4.1 2.9 -3.4 1.9 1.2 1.3 4.6 -0.9 4.6 -1.1 0 -2 -0.6 -2 -1.2z"/>
  <path d="M607 144.1 c0 -1.1 0.4 -2.2 0.9 -2.5 1.2 -0.8 3.4 2.1 2.6 3.4 -1.1 1.7 -3.5 1.1 -3.5 -0.9z"/>
  <path d="M295.7 143.7 c-0.7 -1.9 0.8 -4.1 2.2 -3.3 1.6 1 1.4 4.6 -0.3 4.6 -0.8 0 -1.6 -0.6 -1.9 -1.3z"/>
  <path d="M353.7 132.4 c-0.4 -0.4 -0.7 -1.8 -0.7 -3.1 0 -1.8 0.5 -2.4 1.8 -2.1 1 0.2 1.7 1.2 1.7 2.7 0 2.4 -1.5 3.7 -2.8 2.5z"/>
  <path d="M293.6 126.3 c-1.2 -1.2 -0.6 -4.3 0.9 -4.3 0.8 0 1.5 0.9 1.5 1.9 0 2.1 -1.3 3.4 -2.4 2.4z"/>
  <path d="M557.2 49.7 c-1 -1.1 -0.9 -1.7 0.3 -2.7 2.4 -2 4.5 0.4 2.4 2.6 -1.4 1.3 -1.7 1.3 -2.7 0.1z"/>
  <path d="M516.2 32.1 c-3 -3.2 -3.1 -3.5 -1.3 -4.7 1 -0.7 2.4 -2.7 3.1 -4.5 l1.3 -3.1 1.6 3.3 c0.9 1.8 2.5 3.8 3.6 4.4 1.9 1 1.9 1.2 -1.5 4.5 l-3.6 3.6 -3.2 -3.5z"/>
 </g>
</svg>