<svg version="1.1" id="Layer_1" xmlns="http://www.w3.org/2000/svg" xmlns:xlink="http://www.w3.org/1999/xlink" x="0px" y="0px"
	 width="100%" viewBox="0 0 6000 6000" enable-background="new 0 0 6000 6000" xml:space="preserve">
<path fill="#6D70FF" opacity="1.000000" stroke="none" 
	d="
M332.000000,6004.000000 
	C222.676331,6004.000000 113.352661,6004.000000 4.021745,6004.000000 
	C4.014497,4004.186523 4.014497,2004.372925 4.014497,4.279678 
	C2003.636719,4.279678 4003.273438,4.279678 6003.455078,4.279678 
	C6003.455078,2003.999878 6003.455078,4004.000000 6003.455078,6004.000000 
	C5898.295898,6004.000000 5792.971680,6004.000000 5685.863281,6002.488281 
	C5676.363770,5980.470703 5668.803711,5959.904785 5660.904785,5939.470215 
	C5636.175781,5875.496582 5607.920410,5813.081543 5577.479004,5751.642578 
	C5559.758301,5715.877930 5540.824707,5680.758301 5521.146973,5646.035645 
	C5515.245605,5635.622559 5509.711426,5624.995605 5503.648438,5614.679199 
	C5492.863770,5596.331055 5482.120117,5577.945801 5470.790039,5559.934082 
	C5450.279297,5527.327637 5429.914551,5494.605957 5408.434570,5462.640625 
	C5387.676758,5431.750000 5365.813965,5401.591309 5344.021973,5371.410645 
	C5324.578125,5344.482910 5305.309082,5317.373047 5284.634277,5291.401855 
	C5252.749023,5251.348145 5220.204590,5211.793945 5187.046875,5172.787109 
	C5159.057129,5139.859863 5130.353027,5107.497559 5100.939941,5075.837402 
	C5073.773926,5046.596191 5045.387207,5018.479492 5017.271484,4990.131836 
	C4995.721680,4968.403809 4974.113281,4946.709473 4951.879883,4925.689453 
	C4927.734375,4902.861328 4903.003906,4880.642578 4878.222656,4858.501465 
	C4847.964355,4831.466797 4817.936523,4804.130859 4786.796875,4778.137695 
	C4755.147461,4751.719727 4722.178711,4726.887207 4689.945801,4701.162598 
	C4648.332520,4667.951172 4606.103027,4635.595215 4562.037109,4605.654785 
	C4525.728027,4580.984375 4490.188477,4555.165039 4453.567383,4530.975098 
	C4416.968750,4506.799805 4379.569824,4483.823730 4342.284668,4460.704590 
	C4324.195312,4449.487793 4305.672852,4438.953613 4287.156250,4428.445801 
	C4251.297852,4408.097656 4215.530762,4387.569336 4179.297363,4367.905762 
	C4149.499023,4351.733887 4119.302734,4336.250977 4088.873047,4321.296387 
	C4059.013184,4306.621582 4028.789795,4292.657227 3998.447266,4279.000488 
	C3962.036133,4262.611328 3925.305420,4246.933105 3888.786621,4230.780762 
	C3884.783447,4229.010254 3881.263428,4226.147461 3876.175293,4222.945312 
	C3883.171143,4218.224121 3888.450928,4214.280762 3894.079590,4210.922852 
	C3935.739014,4186.068848 3977.578857,4161.495605 4017.041748,4133.182617 
	C4039.732178,4116.902832 4062.174561,4100.278320 4084.771729,4083.867676 
	C4117.609375,4060.020752 4148.982910,4034.350830 4179.292480,4007.399414 
	C4198.165527,3990.617432 4216.770508,3973.516357 4235.056641,3956.097168 
	C4258.662598,3933.610107 4282.744141,3911.515869 4304.961426,3887.703613 
	C4334.862305,3855.655518 4363.788086,3822.641113 4391.990234,3789.082031 
	C4415.917969,3760.609619 4438.823730,3731.221924 4461.043945,3701.391113 
	C4476.895508,3680.109375 4490.431152,3657.118164 4505.759277,3635.426270 
	C4535.762207,3592.967773 4561.478516,3547.906006 4586.431641,3502.453125 
	C4612.988281,3454.080566 4637.846680,3404.784424 4659.188477,3353.820557 
	C4669.983398,3328.042969 4681.581543,3302.538818 4690.996582,3276.259033 
	C4711.193359,3219.885498 4731.510742,3163.496826 4746.169434,3105.330566 
	C4755.104980,3069.874023 4764.719727,3034.521484 4771.800293,2998.681885 
	C4780.821289,2953.020264 4789.106934,2907.104248 4794.904785,2860.945557 
	C4800.708008,2814.741699 4804.514160,2768.166748 4806.522461,2721.639160 
	C4808.677734,2671.729736 4808.099609,2621.685059 4808.004395,2571.700928 
	C4807.915527,2525.041504 4804.188965,2478.554932 4799.340820,2432.162354 
	C4797.817383,2417.583496 4796.869141,2402.926514 4794.808105,2388.426270 
	C4791.533691,2365.390869 4787.477051,2342.467773 4783.872070,2319.478271 
	C4775.930176,2268.823242 4764.666504,2218.909424 4752.109375,2169.199951 
	C4738.393066,2114.901611 4721.199219,2061.784668 4702.875977,2008.916016 
	C4682.798340,1950.984497 4659.129395,1894.585449 4632.742188,1839.346191 
	C4615.263184,1802.754639 4596.520508,1766.793091 4576.580078,1731.386230 
	C4548.815430,1682.085693 4519.441406,1633.877686 4487.317383,1587.358521 
	C4455.928711,1541.903931 4422.271484,1498.154175 4387.091797,1455.535278 
	C4331.038086,1387.628540 4269.857910,1324.608154 4204.711914,1265.562378 
	C4164.320312,1228.953491 4121.670898,1194.914185 4078.156982,1161.915527 
	C4025.047119,1121.640015 3969.481689,1085.160034 3912.663818,1050.567017 
	C3868.911865,1023.929321 3823.262695,1000.562317 3777.258789,978.066467 
	C3724.042480,952.043701 3669.479248,928.951233 3613.772949,908.815796 
	C3577.474365,895.695312 3540.700684,883.793762 3503.790039,872.488037 
	C3460.524170,859.235840 3416.810547,847.468079 3372.341309,838.824402 
	C3333.809326,831.334839 3295.363037,823.263184 3256.625977,817.016907 
	C3227.086914,812.253784 3197.111084,810.265503 3167.402344,806.471680 
	C3119.736572,800.384583 3071.794678,798.829102 3023.863037,797.501526 
	C2970.545410,796.024841 2917.225586,797.546143 2863.979004,800.399658 
	C2839.384277,801.717712 2814.850098,804.415527 2790.338379,806.966492 
	C2761.210938,809.997742 2732.076416,813.095276 2703.059570,817.014282 
	C2681.312500,819.951477 2659.629395,823.660156 2638.128662,828.056213 
	C2608.805908,834.051453 2579.616699,840.746704 2550.494629,847.664307 
	C2523.949707,853.969910 2497.198730,859.785950 2471.200684,867.931580 
	C2426.132568,882.052185 2381.419434,897.357788 2336.847900,912.994385 
	C2288.447021,929.974243 2241.368164,950.350525 2195.295654,972.805603 
	C2158.836670,990.575195 2123.375488,1010.382202 2087.317871,1028.987427 
	C2047.633301,1049.464233 2010.075806,1073.547852 1972.871338,1098.007202 
	C1930.638794,1125.772095 1889.351929,1155.049072 1850.363281,1187.366333 
	C1818.617676,1213.679810 1785.867188,1238.885498 1755.361450,1266.565430 
	C1711.998779,1305.910889 1669.823730,1346.611938 1630.789673,1390.388062 
	C1617.047729,1405.799438 1602.967163,1420.928955 1589.701904,1436.741577 
	C1553.326172,1480.102417 1518.359375,1524.556030 1485.427734,1570.634521 
	C1455.211792,1612.913208 1427.346313,1656.676514 1401.243530,1701.537476 
	C1383.865601,1731.403687 1367.606934,1761.946045 1351.599976,1792.578979 
	C1331.886230,1830.305542 1313.806152,1868.828125 1297.193359,1908.049072 
	C1277.191650,1955.270386 1258.822876,2003.118286 1243.366699,2051.986328 
	C1229.715942,2095.145996 1216.730591,2138.565918 1205.209229,2182.333496 
	C1196.237671,2216.415283 1189.677856,2251.149414 1182.608521,2285.708496 
	C1178.473999,2305.920654 1174.855957,2326.278320 1172.056274,2346.714355 
	C1168.082397,2375.724365 1165.069946,2404.866211 1161.658325,2433.953125 
	C1156.768799,2475.641113 1154.018555,2517.500244 1153.119141,2559.434814 
	C1151.976196,2612.728516 1152.029297,2666.005371 1154.224731,2719.325684 
	C1156.117920,2765.304199 1160.685303,2810.989014 1165.833496,2856.609619 
	C1169.711914,2890.978760 1175.998047,2925.084717 1181.541870,2959.254150 
	C1183.992065,2974.355957 1186.800537,2989.431641 1190.250244,3004.332764 
	C1197.002197,3033.498291 1204.005127,3062.613770 1211.498657,3091.596436 
	C1217.667114,3115.453369 1223.920410,3139.338379 1231.495605,3162.771484 
	C1249.510864,3218.499023 1268.684692,3273.777344 1291.080322,3328.006836 
	C1314.241211,3384.089355 1340.402466,3438.622070 1369.082275,3491.971436 
	C1384.812988,3521.232910 1401.594971,3549.979004 1419.044800,3578.252930 
	C1438.604980,3609.945557 1458.987671,3641.158691 1479.877197,3671.994873 
	C1500.009399,3701.713379 1521.382812,3730.568848 1544.282471,3758.273193 
	C1561.229614,3778.775635 1576.786621,3800.493896 1594.553955,3820.238770 
	C1637.724365,3868.214355 1681.735718,3915.338867 1728.928589,3959.576172 
	C1774.107300,4001.925537 1821.044434,4042.041748 1870.017944,4079.750488 
	C1900.020386,4102.851562 1931.452637,4124.125488 1962.614746,4145.682129 
	C2002.553345,4173.309082 2044.260010,4198.092285 2086.638672,4221.801758 
	C2093.727539,4225.767578 2102.161377,4228.958008 2107.632324,4237.302734 
	C2102.898438,4240.375000 2099.329346,4243.403320 2095.225098,4245.228516 
	C2079.419678,4252.259277 2063.236816,4258.463379 2047.568359,4265.775879 
	C1996.915649,4289.416992 1945.986450,4312.529297 1896.012451,4337.541504 
	C1853.207153,4358.965332 1811.263916,4382.176758 1769.485840,4405.573242 
	C1705.642822,4441.326660 1643.086182,4479.217285 1581.674194,4519.077148 
	C1534.772949,4549.518066 1488.490234,4580.849121 1443.092041,4613.400879 
	C1398.754150,4645.191895 1355.350464,4678.356934 1312.539795,4712.187988 
	C1269.734985,4746.014648 1227.942139,4781.139648 1186.166870,4816.244629 
	C1166.299683,4832.939941 1147.425903,4850.824219 1128.240723,4868.321289 
	C1102.208618,4892.063477 1075.953613,4915.577637 1050.457886,4939.885742 
	C1026.844604,4962.398926 1004.218079,4985.943359 980.956482,5008.830078 
	C932.516541,5056.488770 886.942627,5106.846191 842.369812,5158.047852 
	C798.702209,5208.208984 755.712708,5259.004883 716.536682,5312.869629 
	C694.235535,5343.532715 671.302185,5373.737305 649.086975,5404.461914 
	C615.575378,5450.810059 584.160706,5498.579590 554.101257,5547.228027 
	C541.859924,5567.039551 530.053467,5587.126465 518.375183,5607.277344 
	C501.699310,5636.051758 484.800903,5664.717773 468.982391,5693.962891 
	C456.028442,5717.911621 444.606964,5742.685547 432.340912,5767.010742 
	C408.638611,5814.015625 387.157349,5862.026367 367.651672,5910.900879 
	C355.335205,5941.761230 343.855255,5972.955566 332.000000,6004.000000 
z"/>
<path fill="#FFFFFF" opacity="1.000000" stroke="none" 
	d="
M333.874634,6004.000000 
	C343.855255,5972.955566 355.335205,5941.761230 367.651672,5910.900879 
	C387.157349,5862.026367 408.638611,5814.015625 432.340912,5767.010742 
	C444.606964,5742.685547 456.028442,5717.911621 468.982391,5693.962891 
	C484.800903,5664.717773 501.699310,5636.051758 518.375183,5607.277344 
	C530.053467,5587.126465 541.859924,5567.039551 554.101257,5547.228027 
	C584.160706,5498.579590 615.575378,5450.810059 649.086975,5404.461914 
	C671.302185,5373.737305 694.235535,5343.532715 716.536682,5312.869629 
	C755.712708,5259.004883 798.702209,5208.208984 842.369812,5158.047852 
	C886.942627,5106.846191 932.516541,5056.488770 980.956482,5008.830078 
	C1004.218079,4985.943359 1026.844604,4962.398926 1050.457886,4939.885742 
	C1075.953613,4915.577637 1102.208618,4892.063477 1128.240723,4868.321289 
	C1147.425903,4850.824219 1166.299683,4832.939941 1186.166870,4816.244629 
	C1227.942139,4781.139648 1269.734985,4746.014648 1312.539795,4712.187988 
	C1355.350464,4678.356934 1398.754150,4645.191895 1443.092041,4613.400879 
	C1488.490234,4580.849121 1534.772949,4549.518066 1581.674194,4519.077148 
	C1643.086182,4479.217285 1705.642822,4441.326660 1769.485840,4405.573242 
	C1811.263916,4382.176758 1853.207153,4358.965332 1896.012451,4337.541504 
	C1945.986450,4312.529297 1996.915649,4289.416992 2047.568359,4265.775879 
	C2063.236816,4258.463379 2079.419678,4252.259277 2095.225098,4245.228516 
	C2099.329346,4243.403320 2102.898438,4240.375000 2107.632324,4237.302734 
	C2102.161377,4228.958008 2093.727539,4225.767578 2086.638672,4221.801758 
	C2044.260010,4198.092285 2002.553345,4173.309082 1962.614746,4145.682129 
	C1931.452637,4124.125488 1900.020386,4102.851562 1870.017944,4079.750488 
	C1821.044434,4042.041748 1774.107300,4001.925537 1728.928589,3959.576172 
	C1681.735718,3915.338867 1637.724365,3868.214355 1594.553955,3820.238770 
	C1576.786621,3800.493896 1561.229614,3778.775635 1544.282471,3758.273193 
	C1521.382812,3730.568848 1500.009399,3701.713379 1479.877197,3671.994873 
	C1458.987671,3641.158691 1438.604980,3609.945557 1419.044800,3578.252930 
	C1401.594971,3549.979004 1384.812988,3521.232910 1369.082275,3491.971436 
	C1340.402466,3438.622070 1314.241211,3384.089355 1291.080322,3328.006836 
	C1268.684692,3273.777344 1249.510864,3218.499023 1231.495605,3162.771484 
	C1223.920410,3139.338379 1217.667114,3115.453369 1211.498657,3091.596436 
	C1204.005127,3062.613770 1197.002197,3033.498291 1190.250244,3004.332764 
	C1186.800537,2989.431641 1183.992065,2974.355957 1181.541870,2959.254150 
	C1175.998047,2925.084717 1169.711914,2890.978760 1165.833496,2856.609619 
	C1160.685303,2810.989014 1156.117920,2765.304199 1154.224731,2719.325684 
	C1152.029297,2666.005371 1151.976196,2612.728516 1153.119141,2559.434814 
	C1154.018555,2517.500244 1156.768799,2475.641113 1161.658325,2433.953125 
	C1165.069946,2404.866211 1168.082397,2375.724365 1172.056274,2346.714355 
	C1174.855957,2326.278320 1178.473999,2305.920654 1182.608521,2285.708496 
	C1189.677856,2251.149414 1196.237671,2216.415283 1205.209229,2182.333496 
	C1216.730591,2138.565918 1229.715942,2095.145996 1243.366699,2051.986328 
	C1258.822876,2003.118286 1277.191650,1955.270386 1297.193359,1908.049072 
	C1313.806152,1868.828125 1331.886230,1830.305542 1351.599976,1792.578979 
	C1367.606934,1761.946045 1383.865601,1731.403687 1401.243530,1701.537476 
	C1427.346313,1656.676514 1455.211792,1612.913208 1485.427734,1570.634521 
	C1518.359375,1524.556030 1553.326172,1480.102417 1589.701904,1436.741577 
	C1602.967163,1420.928955 1617.047729,1405.799438 1630.789673,1390.388062 
	C1669.823730,1346.611938 1711.998779,1305.910889 1755.361450,1266.565430 
	C1785.867188,1238.885498 1818.617676,1213.679810 1850.363281,1187.366333 
	C1889.351929,1155.049072 1930.638794,1125.772095 1972.871338,1098.007202 
	C2010.075806,1073.547852 2047.633301,1049.464233 2087.317871,1028.987427 
	C2123.375488,1010.382202 2158.836670,990.575195 2195.295654,972.805603 
	C2241.368164,950.350525 2288.447021,929.974243 2336.847900,912.994385 
	C2381.419434,897.357788 2426.132568,882.052185 2471.200684,867.931580 
	C2497.198730,859.785950 2523.949707,853.969910 2550.494629,847.664307 
	C2579.616699,840.746704 2608.805908,834.051453 2638.128662,828.056213 
	C2659.629395,823.660156 2681.312500,819.951477 2703.059570,817.014282 
	C2732.076416,813.095276 2761.210938,809.997742 2790.338379,806.966492 
	C2814.850098,804.415527 2839.384277,801.717712 2863.979004,800.399658 
	C2917.225586,797.546143 2970.545410,796.024841 3023.863037,797.501526 
	C3071.794678,798.829102 3119.736572,800.384583 3167.402344,806.471680 
	C3197.111084,810.265503 3227.086914,812.253784 3256.625977,817.016907 
	C3295.363037,823.263184 3333.809326,831.334839 3372.341309,838.824402 
	C3416.810547,847.468079 3460.524170,859.235840 3503.790039,872.488037 
	C3540.700684,883.793762 3577.474365,895.695312 3613.772949,908.815796 
	C3669.479248,928.951233 3724.042480,952.043701 3777.258789,978.066467 
	C3823.262695,1000.562317 3868.911865,1023.929321 3912.663818,1050.567017 
	C3969.481689,1085.160034 4025.047119,1121.640015 4078.156982,1161.915527 
	C4121.670898,1194.914185 4164.320312,1228.953491 4204.711914,1265.562378 
	C4269.857910,1324.608154 4331.038086,1387.628540 4387.091797,1455.535278 
	C4422.271484,1498.154175 4455.928711,1541.903931 4487.317383,1587.358521 
	C4519.441406,1633.877686 4548.815430,1682.085693 4576.580078,1731.386230 
	C4596.520508,1766.793091 4615.263184,1802.754639 4632.742188,1839.346191 
	C4659.129395,1894.585449 4682.798340,1950.984497 4702.875977,2008.916016 
	C4721.199219,2061.784668 4738.393066,2114.901611 4752.109375,2169.199951 
	C4764.666504,2218.909424 4775.930176,2268.823242 4783.872070,2319.478271 
	C4787.477051,2342.467773 4791.533691,2365.390869 4794.808105,2388.426270 
	C4796.869141,2402.926514 4797.817383,2417.583496 4799.340820,2432.162354 
	C4804.188965,2478.554932 4807.915527,2525.041504 4808.004395,2571.700928 
	C4808.099609,2621.685059 4808.677734,2671.729736 4806.522461,2721.639160 
	C4804.514160,2768.166748 4800.708008,2814.741699 4794.904785,2860.945557 
	C4789.106934,2907.104248 4780.821289,2953.020264 4771.800293,2998.681885 
	C4764.719727,3034.521484 4755.104980,3069.874023 4746.169434,3105.330566 
	C4731.510742,3163.496826 4711.193359,3219.885498 4690.996582,3276.259033 
	C4681.581543,3302.538818 4669.983398,3328.042969 4659.188477,3353.820557 
	C4637.846680,3404.784424 4612.988281,3454.080566 4586.431641,3502.453125 
	C4561.478516,3547.906006 4535.762207,3592.967773 4505.759277,3635.426270 
	C4490.431152,3657.118164 4476.895508,3680.109375 4461.043945,3701.391113 
	C4438.823730,3731.221924 4415.917969,3760.609619 4391.990234,3789.082031 
	C4363.788086,3822.641113 4334.862305,3855.655518 4304.961426,3887.703613 
	C4282.744141,3911.515869 4258.662598,3933.610107 4235.056641,3956.097168 
	C4216.770508,3973.516357 4198.165527,3990.617432 4179.292480,4007.399414 
	C4148.982910,4034.350830 4117.609375,4060.020752 4084.771729,4083.867676 
	C4062.174561,4100.278320 4039.732178,4116.902832 4017.041748,4133.182617 
	C3977.578857,4161.495605 3935.739014,4186.068848 3894.079590,4210.922852 
	C3888.450928,4214.280762 3883.171143,4218.224121 3876.175293,4222.945312 
	C3881.263428,4226.147461 3884.783447,4229.010254 3888.786621,4230.780762 
	C3925.305420,4246.933105 3962.036133,4262.611328 3998.447266,4279.000488 
	C4028.789795,4292.657227 4059.013184,4306.621582 4088.873047,4321.296387 
	C4119.302734,4336.250977 4149.499023,4351.733887 4179.297363,4367.905762 
	C4215.530762,4387.569336 4251.297852,4408.097656 4287.156250,4428.445801 
	C4305.672852,4438.953613 4324.195312,4449.487793 4342.284668,4460.704590 
	C4379.569824,4483.823730 4416.968750,4506.799805 4453.567383,4530.975098 
	C4490.188477,4555.165039 4525.728027,4580.984375 4562.037109,4605.654785 
	C4606.103027,4635.595215 4648.332520,4667.951172 4689.945801,4701.162598 
	C4722.178711,4726.887207 4755.147461,4751.719727 4786.796875,4778.137695 
	C4817.936523,4804.130859 4847.964355,4831.466797 4878.222656,4858.501465 
	C4903.003906,4880.642578 4927.734375,4902.861328 4951.879883,4925.689453 
	C4974.113281,4946.709473 4995.721680,4968.403809 5017.271484,4990.131836 
	C5045.387207,5018.479492 5073.773926,5046.596191 5100.939941,5075.837402 
	C5130.353027,5107.497559 5159.057129,5139.859863 5187.046875,5172.787109 
	C5220.204590,5211.793945 5252.749023,5251.348145 5284.634277,5291.401855 
	C5305.309082,5317.373047 5324.578125,5344.482910 5344.021973,5371.410645 
	C5365.813965,5401.591309 5387.676758,5431.750000 5408.434570,5462.640625 
	C5429.914551,5494.605957 5450.279297,5527.327637 5470.790039,5559.934082 
	C5482.120117,5577.945801 5492.863770,5596.331055 5503.648438,5614.679199 
	C5509.711426,5624.995605 5515.245605,5635.622559 5521.146973,5646.035645 
	C5540.824707,5680.758301 5559.758301,5715.877930 5577.479004,5751.642578 
	C5607.920410,5813.081543 5636.175781,5875.496582 5660.904785,5939.470215 
	C5668.803711,5959.904785 5676.363770,5980.470703 5684.039551,6002.488281 
	C3901.249756,6004.000000 2118.499512,6004.000000 333.874634,6004.000000 
z"/>
</svg>